<?xml version="1.0" encoding="utf-8"?>
<!-- Generator: Adobe Illustrator 26.0.3, SVG Export Plug-In . SVG Version: 6.00 Build 0)  -->
<svg version="1.1" id="paw" xmlns="http://www.w3.org/2000/svg" xmlns:xlink="http://www.w3.org/1999/xlink" x="0px" y="0px"
	 viewBox="0 0 512 512" style="enable-background:new 0 0 512 512;" xml:space="preserve">
<style type="text/css">
	.st0{fill:#EFAAF9;}
</style>
<path class="st0" d="M385.5,305.5c-21.7-37.4-68.5-63.3-122.7-63.3s-101,25.9-122.7,63.3c-38.8,18.1-63.3,44.7-63.3,74.3
	c0,54.6,83.3,98.8,186,98.8s186-44.2,186-98.8C448.8,350.2,424.3,323.7,385.5,305.5z"/>
<ellipse transform="matrix(0.2307 -0.973 0.973 0.2307 151.5259 403.8541)" class="st0" cx="331.2" cy="106.1" rx="73.3" ry="56.2"/>
<ellipse transform="matrix(0.973 -0.2307 0.2307 0.973 -19.7667 43.1424)" class="st0" cx="174.6" cy="106.1" rx="56.2" ry="73.3"/>
<ellipse transform="matrix(0.866 -0.5 0.5 0.866 -105.9444 57.0491)" class="st0" cx="53.5" cy="226.2" rx="49.4" ry="64.4"/>
<ellipse transform="matrix(0.5 -0.866 0.866 0.5 47.7361 501.848)" class="st0" cx="458.5" cy="209.6" rx="64.4" ry="49.4"/>
</svg>
